PathFileType	4	(X/Y/Z)	20_1_15_p1_0-607.trc
DataRate	CameraRate	NumFrames	NumMarkers	Units	OrigDataRate	OrigDataStartFrame	OrigNumFrames
59.0	59.0	7	27	m	59.0	380	608
Frame#	Time	RHip			RKnee			RAnkle			RBigToe			RSmallToe			RHeel			LHip			LKnee			LAnkle			LBigToe			LSmallToe			LHeel			Neck			Head			Nose			RShoulder			RElbow			RWrist			RThumb			RIndex			RPinky			LShoulder			LElbow			LWrist			LThumb			LIndex			LPinky			
		X1	Y1	Z1	X2	Y2	Z2	X3	Y3	Z3	X4	Y4	Z4	X5	Y5	Z5	X6	Y6	Z6	X7	Y7	Z7	X8	Y8	Z8	X9	Y9	Z9	X10	Y10	Z10	X11	Y11	Z11	X12	Y12	Z12	X13	Y13	Z13	X14	Y14	Z14	X15	Y15	Z15	X16	Y16	Z16	X17	Y17	Z17	X18	Y18	Z18	X19	Y19	Z19	X20	Y20	Z20	X21	Y21	Z21	X22	Y22	Z22	X23	Y23	Z23	X24	Y24	Z24	X25	Y25	Z25	X26	Y26	Z26	X27	Y27	Z27	
380	6.440677966101695	0.33214665614254996	0.5776779857470445	0.9729354882935226	0.34356299813223223	0.6905372559697084	1.3487053423590805	0.35337184330773785	0.8479471795983595	1.7493598771541494	0.319590801324138	0.6441467486690986	1.8016664287096702	0.38271752094346645	0.6742286046026649	1.8078464542623631	0.3301311315652703	0.9357288028191831	1.7999978707066828	0.13901962893513659	0.6055198372925089	0.970236865554136	0.1454282055847725	0.7223865956419991	1.3359109716599538	0.14151076356788023	0.8231865882035909	1.693833320874811	0.13998573621064675	0.6330337120082691	1.7813015389070068	0.08862634361084475	0.6916477782962135	1.7808594523804022	0.15305052054350302	0.8903298335359838	1.7560789990358332	0.23795920489169275	0.4882005832351821	0.43931729615336207	0.23324241705521168	0.3562455509587185	0.21902140057690464	0.2197096402362867	0.3093887120648048	0.3435156319313227	0.39447295336361804	0.45039418603325565	0.5221394497873946	0.45869872289952607	0.5533904439626043	0.7485868200064458	0.40535367023727004	0.3007440859857093	0.7471011510357997	0.35699762888256475	0.13063546235493784	0.6953208917545655	0.3637691908502265	0.10875216817630216	0.7049513416716889	0.37310344264865364	0.15163720614851686	0.7582613689410804	0.10797580652062705	0.5026365864136266	0.522134128222353	0.027579790216489236	0.5602539201787922	0.7512314909884393	0.008891794714050575	0.32811821819868525	0.7194114565054723	0.007426958451395781	0.19946223668577817	0.6669560435498791	-0.0010560522005833427	0.17473527783856496	0.6770818307025727	-0.017088647971099234	0.21230027894913034	0.7130672156446689
381	6.4576271186440675	0.332184489980528	0.5772585729285699	0.9727597653843216	0.3435413252936282	0.6903876852530253	1.3486044358792122	0.3533979223535637	0.8477728447452982	1.7493784569611461	0.31966165227117455	0.6442631669864347	1.8017405560729227	0.3859540790433362	0.6581449836873212	1.8016954551404458	0.33012180260992835	0.9360277920708517	1.800121365829215	0.13897793892782442	0.6056990554760404	0.9702009524281662	0.145378077925912	0.722301435353845	1.3356853648261018	0.1417096062204337	0.8217352324967223	1.6972751972882543	0.14320796840565897	0.6483049651640009	1.7867345174715505	0.08413047457888295	0.7065875370946335	1.7863358458976517	0.152920019461681	0.890249652860406	1.7559096512315677	0.23791267683770587	0.48805347604990457	0.43930270863117127	0.2332112504993241	0.3562576165284943	0.21915961714621762	0.21971944114763933	0.30935504614499276	0.3435520774784637	0.39014600631417573	0.4389847960508264	0.522715570553782	0.45896208549491496	0.5534315568690861	0.7486667559112358	0.40536312173479905	0.30062287392050135	0.7578992379447599	0.364015731329897	0.12029051505221172	0.7052465208682835	0.36576001276698733	0.09858394853230186	0.7119628826117296	0.3760412715871508	0.14758123816506508	0.7747813236623786	0.10807478524244546	0.5027768906920808	0.5221619126987767	0.027979352876034706	0.56051524078899	0.75121168755308	0.008991059982615431	0.33168025322620326	0.7275306040449647	-0.0029380671817553963	0.20871557204914462	0.6749076110565297	-0.009752480863531929	0.19758195114156996	0.688435000884252	-0.021355217482020936	0.21810190927311418	0.7241175989885962
382	6.47457627118644	0.33205166453936136	0.5771880556052332	0.9727364886791513	0.342480896632965	0.6875157012302635	1.34404784382681	0.3533551353598586	0.8479312505840301	1.7492413083500122	0.3195895601855671	0.6437758549870993	1.801516077575747	0.37819247156206565	0.6734569403894618	1.8075945826678566	0.33127680610778276	0.9339035593690015	1.7941826519691033	0.13498428700733134	0.6189484747949244	0.9754466730464928	0.14535629241548842	0.7223240356312796	1.335767157796079	0.14171741325065812	0.8218408681541176	1.697352989896925	0.14326202857900686	0.6480122005446307	1.7865987076979748	0.08418296651971671	0.7062754770070904	1.7861625003551345	0.1529146171490593	0.8898827725167301	1.7555625062811047	0.2338188223959843	0.487302863655082	0.43954408828197356	0.2332042437711491	0.356415517832031	0.21919106217344206	0.2196775514361201	0.30941551047459803	0.3435904868871488	0.39013340267603697	0.43905395255659146	0.5229184472807957	0.45593304091621484	0.567090135551703	0.7529582271179928	0.4060138883211902	0.30276660710826186	0.7654636199961111	0.36429059874001496	0.1216075036836122	0.7147867601013904	0.3647942334346735	0.09737133493059948	0.7210925222958502	0.37432845829879563	0.15992867540300906	0.7828257327361997	0.10012195978423777	0.5143862500685936	0.5219083937220717	0.02869579888709138	0.5615847564203788	0.7515804633357457	0.009644784561719593	0.3364136930423385	0.7352502499370942	0.0038772002152486023	0.20984678362444958	0.687842569363217	-0.005580469517128686	0.18680690160750407	0.6927128052421906	-0.022619326431925876	0.212156926300171	0.7192364815641534
383	6.491525423728813	0.32771762205403976	0.5764745808896076	0.9685625402892258	0.34245728596134684	0.6875192759566925	1.3438011160362004	0.35334803370981155	0.8479229175975016	1.7491215604396824	0.3194513884305076	0.6434965346066783	1.8013553842044217	0.3780681845351768	0.6733486357862604	1.8075239742961242	0.33010062545959673	0.9352595772205993	1.799666724819286	0.13911306767427747	0.604817204771267	0.973756543412866	0.14532663680587496	0.722305829365212	1.335514358874415	0.14147900383378723	0.8232105180033644	1.6936759271389166	0.143109079522874	0.6480386655865492	1.786385056924817	0.08737258541555395	0.6934510814596803	1.7848936355799319	0.15283069671900196	0.8897555750391067	1.755238090150722	0.23382157834336564	0.48715226843519854	0.4395256118285944	0.23319185360484476	0.35645000724098647	0.21901090399132425	0.22002032862386134	0.3112048604051857	0.34668468456826557	0.38607183695101627	0.4379291632608234	0.5230949885241208	0.4581636516647175	0.5522788445667487	0.7518064529669186	0.4071663111992797	0.30481370772946204	0.77283266847023	0.3696205530595878	0.12411954010790534	0.7279727998303961	0.36410921851645456	0.102413003968384	0.7378021740654105	0.37789378030536136	0.18260115779693342	0.7913078188127444	0.103840592105092	0.5139734602826669	0.5181127079578963	0.029244396345559767	0.563139942215856	0.7516514570449236	0.014540345718363289	0.342064343399506	0.746519667023465	-0.00026670628086360897	0.2209407850839719	0.6955739344173784	-0.0138707540050135	0.208513174641489	0.6972432121852841	-0.024070610321280887	0.24264144662261494	0.7352792029299494
384	6.508474576271187	0.3277333748092665	0.5765899537942105	0.96855567676472	0.34346517963014506	0.6901700641538483	1.34853729396645	0.3534460961524162	0.8478358959791625	1.7492365033430137	0.31637476275504606	0.6601501026682699	1.8078976188275362	0.38340023371569926	0.674005126630508	1.808082491679467	0.3314432325951099	0.9341710115499523	1.794431865063357	0.1349332454816766	0.6184402700345615	0.9752536354501242	0.1416588842914307	0.70813506555252	1.333045810432884	0.1415832667287049	0.8232253217482852	1.693668040373285	0.13560313868772103	0.6478299657178166	1.7862970855029545	0.0882038516221559	0.7065326149455714	1.7858590040350442	0.153791660865571	0.887429505221385	1.7490947359863438	0.2378579626441651	0.48792949407656017	0.4395345112883457	0.23320855351390352	0.3562425324217533	0.21929309957080584	0.21983900781433208	0.3089580714832586	0.3471474488813543	0.3860578109536629	0.4378985893486239	0.5230635226744108	0.453734916513872	0.5531432426891733	0.7369697220582184	0.4032526639301223	0.3037848092667084	0.7730182744316964	0.3665995907110484	0.10911748880960949	0.7444034539792767	0.3667266213274993	0.102970321827713	0.7547762383325032	0.3820847470820977	0.19237704432634664	0.7959291363429246	0.1004970461458186	0.5039111113664052	0.5261412542250443	0.03360262070889104	0.5632858006441238	0.7516288607745085	0.02182911583146639	0.35508243453312605	0.7472111213529363	-0.002139280098186209	0.21057350418200646	0.7045973706338705	-0.009836838668824793	0.19685824877888058	0.7018075189215772	-0.02171306252960209	0.22490417106025848	0.7455990647863724
385	6.52542372881356	0.32765656502770646	0.5761095128985736	0.9682875307155892	0.34348156061991303	0.6902321721115916	1.348540608381264	0.35339834078286947	0.8479707929742448	1.7492156918637454	0.3164275038886166	0.6608608254752006	1.808077686063877	0.3833579919892044	0.6752752771237137	1.8084137278662165	0.33147916149246154	0.933371449631426	1.7977533497123466	0.13494171384014314	0.6182601759050687	0.975326684340882	0.1416026217231616	0.7081079683525292	1.3329665087587526	0.14159125440020123	0.8234275034343135	1.693851666186224	0.13979427752105575	0.63288221195184	1.7808640308647845	0.08410997371815256	0.7066967069183336	1.7862222631047737	0.1538624613813291	0.8881595274355768	1.749706197019985	0.23777277640342714	0.48770613987207223	0.43948897711765594	0.2332601779311034	0.35618008786451855	0.2191315636618731	0.22359815885931042	0.3103265858581399	0.3469947271908796	0.38608107723475865	0.43794754292047794	0.523219866894777	0.45206838774854735	0.5512711346055774	0.7402866113332245	0.4076986913446204	0.31428839997168373	0.7736089225382468	0.37493770998825965	0.12233221046810308	0.7489224363100099	0.3740397837060937	0.10792167848790218	0.7592721345074923	0.3931414100498464	0.202320927852386	0.7941157414694393	0.09983181994001054	0.515545381285124	0.5255628330779666	0.03731746355312342	0.5766183117626307	0.7519515529544541	0.022077743976775383	0.35447184047436303	0.7471800969793658	0.0033190053474560968	0.21427289162498583	0.7104087380410209	-0.009736256604604842	0.1970137755576176	0.702373475822182	-0.02174224067519676	0.22462396335748464	0.745793917152164
386	6.5423728813559325	0.327495426392492	0.5769584479558801	0.9646795154105005	0.34347423517362596	0.6901473536496815	1.3486009942762025	0.3534380426515668	0.8478201268425509	1.749149368994675	0.3161757239360186	0.6606388659506598	1.8079449380465296	0.38631681335010637	0.6582855675405191	1.8019479047117308	0.33139369130655477	0.9328381054173719	1.797482721186346	0.13888698276831668	0.6051440442584667	0.9698796535511871	0.1416692792656373	0.7082902379152419	1.3329992452437054	0.14157909793520465	0.8234385654342433	1.6937478148956222	0.13970582493430114	0.6330695508701245	1.780811352652481	0.0840852974828462	0.7066494767852164	1.78607441486299	0.15370470931862135	0.888022036378461	1.7493837314498786	0.23774796224240713	0.4877848331876197	0.43944518118570375	0.23330023181796952	0.35623901098885213	0.21909723708284234	0.2235933387047745	0.31033247362781186	0.34695771253580954	0.38611321347326366	0.4380299456696323	0.5231560082052381	0.4491927081390545	0.5526106996365615	0.7369146719581714	0.40689194635933956	0.31275601967313155	0.7662521192622683	0.3904144245367474	0.1419789082202531	0.7459005923987113	0.37913864496996663	0.11644402610678832	0.7494097931542778	0.39213172250403633	0.17981054817265876	0.7921280169916567	0.1004998200068643	0.5042676967024233	0.5260981980553383	0.03444775320851468	0.5612355603473087	0.7512651280361509	0.021927765843915422	0.3545541119297057	0.7469699767905166	-0.0024252656416524523	0.21129060490461596	0.7058965115707491	-0.013644907057174731	0.20671215722971922	0.7024752184350527	-0.027474852799307527	0.23231068173657848	0.7350872021614392
